<svg xmlns="http://www.w3.org/2000/svg" viewBox="0 0 228 60" width="228" height="60" role="img">
  <title>JSINI 가로 조합 1색</title>
  <desc>심볼 왼쪽, JSINI 오른쪽. 가로 조합 기본형</desc>
    <g transform="translate(-18,-30) scale(1)">
      <path d="M58,30 L102,30 L102,42 L70,42 L70,54 L102,54 L102,90 L58,90 L58,78 L90,78 L90,66 L58,66 Z" fill="#0A0A0A"/>
    </g>
    <g transform="translate(-18,-30) scale(1)">
      <path d="M50,42 L62,30 L62,90 L18,90 L18,78 L50,78 Z" fill="none" stroke="#FFFFFF" stroke-width="4"/>
    </g>
    <g transform="translate(-18,-30) scale(1)">
      <path d="M50,42 L62,30 L62,90 L18,90 L18,78 L50,78 Z" fill="#0A0A0A"/>
    </g>
    <path d="M124,21 L130,15 L130,45 L108,45 L108,39 L124,39 Z" fill="#0A0A0A"/>
    <path d="M140,15 L162,15 L162,21 L146,21 L146,27 L162,27 L162,45 L140,45 L140,39 L156,39 L156,33 L140,33 Z" fill="#0A0A0A"/>
    <path d="M172,15 L178,15 L178,45 L172,45 Z" fill="#0A0A0A"/>
    <path d="M188,45 L188,15 L194,15 L206,35 L206,15 L212,15 L212,45 L206,45 L194,25 L194,45 Z" fill="#0A0A0A"/>
    <path d="M222,15 L228,15 L228,45 L222,45 Z" fill="#0A0A0A"/>
</svg>
