<svg xmlns="http://www.w3.org/2000/svg" viewBox="0 0 1200 760" role="img" aria-label="장례식장 관리 시스템 — 빈소 현황 화면 재현"><title>장례식장 관리 시스템 — 빈소 현황 화면 재현</title><desc>실제 화면을 본뜬 재현 이미지. 표시된 자료는 모두 가상이다.</desc><rect x="0" y="0" width="1200" height="760" fill="#FFFFFF"/><rect x="0" y="0" width="168" height="760" fill="#1C1C1E"/><circle cx="26" cy="30" r="10" fill="#FFFFFF" fill-opacity="0.25"/><rect x="44" y="26" width="62" height="7" fill="#FFFFFF" fill-opacity="0.35"/><rect x="14" y="56" width="140" height="24" fill="#FFFFFF" fill-opacity="0.08"/><rect x="24" y="65" width="52" height="6" fill="#FFFFFF" fill-opacity="0.25"/><rect x="16" y="95" width="9" height="9" fill="#FFFFFF" fill-opacity="0.45"/><text x="36" y="103" fill="#FFFFFF" font-size="12" font-weight="400" text-anchor="start" font-family="sans-serif">공통</text><rect x="16" y="125" width="9" height="9" fill="#FFFFFF" fill-opacity="0.45"/><text x="36" y="133" fill="#FFFFFF" font-size="12" font-weight="400" text-anchor="start" font-family="sans-serif">시스템</text><rect x="16" y="155" width="9" height="9" fill="#FFFFFF" fill-opacity="0.45"/><text x="36" y="163" fill="#FFFFFF" font-size="12" font-weight="400" text-anchor="start" font-family="sans-serif">권한</text><rect x="16" y="185" width="9" height="9" fill="#FFFFFF" fill-opacity="0.45"/><text x="36" y="193" fill="#FFFFFF" font-size="12" font-weight="400" text-anchor="start" font-family="sans-serif">건물관리</text><rect x="16" y="215" width="9" height="9" fill="#FFFFFF" fill-opacity="0.45"/><text x="36" y="223" fill="#FFFFFF" font-size="12" font-weight="400" text-anchor="start" font-family="sans-serif">장비</text><rect x="16" y="245" width="9" height="9" fill="#FFFFFF" fill-opacity="0.45"/><text x="36" y="253" fill="#FFFFFF" font-size="12" font-weight="400" text-anchor="start" font-family="sans-serif">소스</text><rect x="0" y="266" width="168" height="30" fill="#FFFFFF" fill-opacity="0.12"/><rect x="0" y="266" width="3" height="30" fill="#FFFFFF" fill-opacity="0.7"/><rect x="16" y="275" width="9" height="9" fill="#FFFFFF" fill-opacity="0.45"/><text x="36" y="283" fill="#FFFFFF" font-size="12" font-weight="400" text-anchor="start" font-family="sans-serif">현황관리</text><rect x="16" y="305" width="9" height="9" fill="#FFFFFF" fill-opacity="0.45"/><text x="36" y="313" fill="#FFFFFF" font-size="12" font-weight="400" text-anchor="start" font-family="sans-serif">통계</text><rect x="16" y="335" width="9" height="9" fill="#FFFFFF" fill-opacity="0.45"/><text x="36" y="343" fill="#FFFFFF" font-size="12" font-weight="400" text-anchor="start" font-family="sans-serif">정보</text><rect x="16" y="365" width="9" height="9" fill="#FFFFFF" fill-opacity="0.45"/><text x="36" y="373" fill="#FFFFFF" font-size="12" font-weight="400" text-anchor="start" font-family="sans-serif">미리보기</text><rect x="16" y="395" width="9" height="9" fill="#FFFFFF" fill-opacity="0.45"/><text x="36" y="403" fill="#FFFFFF" font-size="12" font-weight="400" text-anchor="start" font-family="sans-serif">설정</text><rect x="16" y="425" width="9" height="9" fill="#FFFFFF" fill-opacity="0.45"/><text x="36" y="433" fill="#FFFFFF" font-size="12" font-weight="400" text-anchor="start" font-family="sans-serif">도움말</text><rect x="168" y="0" width="1032" height="34" fill="#FFFFFF" stroke="#D2D2D7" stroke-width="1"/><rect x="184" y="6" width="74" height="28" fill="#0A0A0A"/><rect x="196" y="17" width="50" height="6" fill="#FFFFFF" fill-opacity="0.85"/><rect x="266" y="6" width="74" height="28" fill="#FFFFFF" stroke="#D2D2D7" stroke-width="1"/><rect x="278" y="17" width="50" height="6" fill="#D2D2D7"/><text x="188" y="66" fill="#0A0A0A" font-size="21" font-weight="700" text-anchor="start" font-family="sans-serif">빈소 현황</text><text x="288" y="66" fill="#6E6E73" font-size="11" font-weight="400" text-anchor="start" font-family="sans-serif">현황관리</text><text x="344" y="66" fill="#6E6E73" font-size="11" font-weight="400" text-anchor="start" font-family="sans-serif">장비 13</text><circle cx="396" cy="61" r="5" fill="#0A0A0A"/><text x="406" y="66" fill="#6E6E73" font-size="11" font-weight="400" text-anchor="start" font-family="sans-serif">0</text><circle cx="422" cy="61" r="5" fill="#D2D2D7"/><text x="432" y="66" fill="#6E6E73" font-size="11" font-weight="400" text-anchor="start" font-family="sans-serif">13</text><rect x="1050" y="48" width="62" height="24" fill="#0A0A0A"/><rect x="1062" y="57" width="38" height="6" fill="#FFFFFF" fill-opacity="0.85"/><rect x="1120" y="48" width="56" height="24" fill="#FFFFFF" stroke="#D2D2D7" stroke-width="1"/><rect x="1132" y="57" width="32" height="6" fill="#D2D2D7"/><rect x="168" y="84" width="1032" height="48" fill="#FFFFFF" stroke="#D2D2D7" stroke-width="1"/><text x="208" y="113" fill="#6E6E73" font-size="12" font-weight="400" text-anchor="start" font-family="sans-serif">회사</text><rect x="244" y="96" width="180" height="26" fill="#FFFFFF" stroke="#D2D2D7" stroke-width="1"/><rect x="256" y="106" width="60" height="6" fill="#1C1C1E" fill-opacity="0.6"/><text x="488" y="113" fill="#6E6E73" font-size="12" font-weight="400" text-anchor="start" font-family="sans-serif">건물</text><rect x="524" y="96" width="180" height="26" fill="#FFFFFF" stroke="#D2D2D7" stroke-width="1"/><rect x="536" y="106" width="40" height="6" fill="#1C1C1E" fill-opacity="0.6"/><text x="192" y="168" fill="#0A0A0A" font-size="16" font-weight="700" text-anchor="start" font-family="sans-serif">○○ 장례식장</text><text x="308" y="168" fill="#6E6E73" font-size="11" font-weight="400" text-anchor="start" font-family="sans-serif">장비 9</text><rect x="192" y="186" width="190" height="176" fill="#FFFFFF" stroke="#D2D2D7" stroke-width="1"/><rect x="192" y="186" width="190" height="30" fill="#0A0A0A"/><text x="204" y="206" fill="#FFFFFF" font-size="13" font-weight="700" text-anchor="start" font-family="sans-serif">○ 호실</text><text x="204" y="238" fill="#0A0A0A" font-size="12" font-weight="700" text-anchor="start" font-family="sans-serif">故 ○ ○ ○</text><text x="204" y="258" fill="#6E6E73" font-size="10" font-weight="400" text-anchor="start" font-family="sans-serif">입실</text><rect x="230" y="252" width="74" height="6" fill="#D2D2D7"/><text x="204" y="276" fill="#6E6E73" font-size="10" font-weight="400" text-anchor="start" font-family="sans-serif">온도</text><rect x="230" y="270" width="30" height="6" fill="#D2D2D7"/><rect x="204" y="286" width="60" height="18" fill="#6E6E73" fill-opacity="0.85"/><rect x="212" y="292" width="44" height="6" fill="#FFFFFF" fill-opacity="0.8"/><rect x="270" y="286" width="60" height="18" fill="#6E6E73" fill-opacity="0.85"/><rect x="278" y="292" width="44" height="6" fill="#FFFFFF" fill-opacity="0.8"/><rect x="204" y="310" width="84" height="18" fill="#D2D2D7"/><rect x="212" y="316" width="68" height="6" fill="#6E6E73" fill-opacity="0.7"/><rect x="204" y="334" width="46" height="20" fill="#0A0A0A"/><rect x="213" y="341" width="28" height="6" fill="#FFFFFF" fill-opacity="0.85"/><rect x="256" y="334" width="46" height="20" fill="#1C1C1E"/><rect x="265" y="341" width="28" height="6" fill="#FFFFFF" fill-opacity="0.85"/><rect x="308" y="334" width="52" height="20" fill="#6E6E73"/><rect x="317" y="341" width="34" height="6" fill="#FFFFFF" fill-opacity="0.85"/><rect x="394" y="186" width="190" height="176" fill="#FFFFFF" stroke="#D2D2D7" stroke-width="1"/><rect x="394" y="186" width="190" height="30" fill="#0A0A0A"/><text x="406" y="206" fill="#FFFFFF" font-size="13" font-weight="700" text-anchor="start" font-family="sans-serif">○ 호실</text><text x="406" y="238" fill="#0A0A0A" font-size="12" font-weight="700" text-anchor="start" font-family="sans-serif">故 ○ ○ ○</text><text x="406" y="258" fill="#6E6E73" font-size="10" font-weight="400" text-anchor="start" font-family="sans-serif">입실</text><rect x="432" y="252" width="74" height="6" fill="#D2D2D7"/><text x="406" y="276" fill="#6E6E73" font-size="10" font-weight="400" text-anchor="start" font-family="sans-serif">온도</text><rect x="432" y="270" width="30" height="6" fill="#D2D2D7"/><rect x="406" y="286" width="60" height="18" fill="#6E6E73" fill-opacity="0.85"/><rect x="414" y="292" width="44" height="6" fill="#FFFFFF" fill-opacity="0.8"/><rect x="472" y="286" width="60" height="18" fill="#6E6E73" fill-opacity="0.85"/><rect x="480" y="292" width="44" height="6" fill="#FFFFFF" fill-opacity="0.8"/><rect x="406" y="310" width="84" height="18" fill="#D2D2D7"/><rect x="414" y="316" width="68" height="6" fill="#6E6E73" fill-opacity="0.7"/><rect x="406" y="334" width="46" height="20" fill="#0A0A0A"/><rect x="415" y="341" width="28" height="6" fill="#FFFFFF" fill-opacity="0.85"/><rect x="458" y="334" width="46" height="20" fill="#1C1C1E"/><rect x="467" y="341" width="28" height="6" fill="#FFFFFF" fill-opacity="0.85"/><rect x="510" y="334" width="52" height="20" fill="#6E6E73"/><rect x="519" y="341" width="34" height="6" fill="#FFFFFF" fill-opacity="0.85"/><rect x="596" y="186" width="190" height="176" fill="#FFFFFF" stroke="#D2D2D7" stroke-width="1"/><rect x="596" y="186" width="190" height="30" fill="#D2D2D7"/><text x="608" y="206" fill="#1C1C1E" font-size="13" font-weight="700" text-anchor="start" font-family="sans-serif">○ 호실</text><text x="608" y="244" fill="#6E6E73" font-size="10" font-weight="400" text-anchor="start" font-family="sans-serif">퇴실</text><rect x="634" y="238" width="74" height="6" fill="#D2D2D7"/><text x="608" y="262" fill="#6E6E73" font-size="10" font-weight="400" text-anchor="start" font-family="sans-serif">온도</text><rect x="634" y="256" width="22" height="6" fill="#D2D2D7"/><rect x="608" y="310" width="70" height="18" fill="#D2D2D7"/><rect x="616" y="316" width="54" height="6" fill="#6E6E73" fill-opacity="0.7"/><rect x="608" y="334" width="58" height="20" fill="#D2D2D7"/><rect x="617" y="341" width="40" height="6" fill="#1C1C1E" fill-opacity="0.7"/><rect x="672" y="334" width="52" height="20" fill="#0A0A0A"/><rect x="681" y="341" width="34" height="6" fill="#FFFFFF" fill-opacity="0.85"/><rect x="798" y="186" width="190" height="176" fill="#FFFFFF" stroke="#D2D2D7" stroke-width="1"/><rect x="798" y="186" width="190" height="30" fill="#D2D2D7"/><text x="810" y="206" fill="#1C1C1E" font-size="13" font-weight="700" text-anchor="start" font-family="sans-serif">○ 호실</text><text x="810" y="244" fill="#6E6E73" font-size="10" font-weight="400" text-anchor="start" font-family="sans-serif">퇴실</text><rect x="836" y="238" width="74" height="6" fill="#D2D2D7"/><text x="810" y="262" fill="#6E6E73" font-size="10" font-weight="400" text-anchor="start" font-family="sans-serif">온도</text><rect x="836" y="256" width="22" height="6" fill="#D2D2D7"/><rect x="810" y="310" width="70" height="18" fill="#D2D2D7"/><rect x="818" y="316" width="54" height="6" fill="#6E6E73" fill-opacity="0.7"/><rect x="810" y="334" width="58" height="20" fill="#D2D2D7"/><rect x="819" y="341" width="40" height="6" fill="#1C1C1E" fill-opacity="0.7"/><rect x="874" y="334" width="52" height="20" fill="#0A0A0A"/><rect x="883" y="341" width="34" height="6" fill="#FFFFFF" fill-opacity="0.85"/><rect x="1000" y="186" width="190" height="176" fill="#FFFFFF" stroke="#D2D2D7" stroke-width="1"/><rect x="1000" y="186" width="190" height="30" fill="#D2D2D7"/><text x="1012" y="206" fill="#1C1C1E" font-size="13" font-weight="700" text-anchor="start" font-family="sans-serif">○ 호실</text><text x="1012" y="244" fill="#6E6E73" font-size="10" font-weight="400" text-anchor="start" font-family="sans-serif">퇴실</text><rect x="1038" y="238" width="74" height="6" fill="#D2D2D7"/><text x="1012" y="262" fill="#6E6E73" font-size="10" font-weight="400" text-anchor="start" font-family="sans-serif">온도</text><rect x="1038" y="256" width="22" height="6" fill="#D2D2D7"/><rect x="1012" y="310" width="70" height="18" fill="#D2D2D7"/><rect x="1020" y="316" width="54" height="6" fill="#6E6E73" fill-opacity="0.7"/><rect x="1012" y="334" width="58" height="20" fill="#D2D2D7"/><rect x="1021" y="341" width="40" height="6" fill="#1C1C1E" fill-opacity="0.7"/><rect x="1076" y="334" width="52" height="20" fill="#0A0A0A"/><rect x="1085" y="341" width="34" height="6" fill="#FFFFFF" fill-opacity="0.85"/><rect x="192" y="374" width="190" height="176" fill="#FFFFFF" stroke="#D2D2D7" stroke-width="1"/><rect x="192" y="374" width="190" height="30" fill="#D2D2D7"/><text x="204" y="394" fill="#1C1C1E" font-size="13" font-weight="700" text-anchor="start" font-family="sans-serif">○ 호실</text><text x="204" y="432" fill="#6E6E73" font-size="10" font-weight="400" text-anchor="start" font-family="sans-serif">퇴실</text><rect x="230" y="426" width="74" height="6" fill="#D2D2D7"/><text x="204" y="450" fill="#6E6E73" font-size="10" font-weight="400" text-anchor="start" font-family="sans-serif">온도</text><rect x="230" y="444" width="22" height="6" fill="#D2D2D7"/><rect x="204" y="498" width="70" height="18" fill="#D2D2D7"/><rect x="212" y="504" width="54" height="6" fill="#6E6E73" fill-opacity="0.7"/><rect x="204" y="522" width="58" height="20" fill="#D2D2D7"/><rect x="213" y="529" width="40" height="6" fill="#1C1C1E" fill-opacity="0.7"/><rect x="268" y="522" width="52" height="20" fill="#0A0A0A"/><rect x="277" y="529" width="34" height="6" fill="#FFFFFF" fill-opacity="0.85"/><rect x="394" y="374" width="190" height="176" fill="#FFFFFF" stroke="#D2D2D7" stroke-width="1"/><rect x="394" y="374" width="190" height="30" fill="#D2D2D7"/><text x="406" y="394" fill="#1C1C1E" font-size="13" font-weight="700" text-anchor="start" font-family="sans-serif">○ 호실</text><text x="406" y="432" fill="#6E6E73" font-size="10" font-weight="400" text-anchor="start" font-family="sans-serif">퇴실</text><rect x="432" y="426" width="74" height="6" fill="#D2D2D7"/><text x="406" y="450" fill="#6E6E73" font-size="10" font-weight="400" text-anchor="start" font-family="sans-serif">온도</text><rect x="432" y="444" width="22" height="6" fill="#D2D2D7"/><rect x="406" y="498" width="70" height="18" fill="#D2D2D7"/><rect x="414" y="504" width="54" height="6" fill="#6E6E73" fill-opacity="0.7"/><rect x="406" y="522" width="58" height="20" fill="#D2D2D7"/><rect x="415" y="529" width="40" height="6" fill="#1C1C1E" fill-opacity="0.7"/><rect x="470" y="522" width="52" height="20" fill="#0A0A0A"/><rect x="479" y="529" width="34" height="6" fill="#FFFFFF" fill-opacity="0.85"/><rect x="596" y="374" width="190" height="176" fill="#FFFFFF" stroke="#D2D2D7" stroke-width="1"/><rect x="596" y="374" width="190" height="30" fill="#D2D2D7"/><text x="608" y="394" fill="#1C1C1E" font-size="13" font-weight="700" text-anchor="start" font-family="sans-serif">○ 호실</text><text x="608" y="432" fill="#6E6E73" font-size="10" font-weight="400" text-anchor="start" font-family="sans-serif">퇴실</text><rect x="634" y="426" width="74" height="6" fill="#D2D2D7"/><text x="608" y="450" fill="#6E6E73" font-size="10" font-weight="400" text-anchor="start" font-family="sans-serif">온도</text><rect x="634" y="444" width="22" height="6" fill="#D2D2D7"/><rect x="608" y="498" width="70" height="18" fill="#D2D2D7"/><rect x="616" y="504" width="54" height="6" fill="#6E6E73" fill-opacity="0.7"/><rect x="608" y="522" width="58" height="20" fill="#D2D2D7"/><rect x="617" y="529" width="40" height="6" fill="#1C1C1E" fill-opacity="0.7"/><rect x="672" y="522" width="52" height="20" fill="#0A0A0A"/><rect x="681" y="529" width="34" height="6" fill="#FFFFFF" fill-opacity="0.85"/><text x="192" y="596" fill="#0A0A0A" font-size="16" font-weight="700" text-anchor="start" font-family="sans-serif">○○ 장례식장</text><text x="308" y="596" fill="#6E6E73" font-size="11" font-weight="400" text-anchor="start" font-family="sans-serif">장비 4</text><rect x="192" y="614" width="190" height="146" fill="#FFFFFF" stroke="#D2D2D7" stroke-width="1"/><rect x="192" y="614" width="190" height="30" fill="#0A0A0A"/><rect x="394" y="614" width="190" height="146" fill="#FFFFFF" stroke="#D2D2D7" stroke-width="1"/><rect x="394" y="614" width="190" height="30" fill="#D2D2D7"/><rect x="596" y="614" width="190" height="146" fill="#FFFFFF" stroke="#D2D2D7" stroke-width="1"/><rect x="596" y="614" width="190" height="30" fill="#D2D2D7"/><rect x="798" y="614" width="190" height="146" fill="#FFFFFF" stroke="#D2D2D7" stroke-width="1"/><rect x="798" y="614" width="190" height="30" fill="#D2D2D7"/><rect x="1000" y="614" width="190" height="146" fill="#FFFFFF" stroke="#D2D2D7" stroke-width="1"/><rect x="1000" y="614" width="190" height="30" fill="#D2D2D7"/></svg>