<svg xmlns="http://www.w3.org/2000/svg" viewBox="0 0 1200 760" role="img" aria-label="헬프데스크 — 대시보드 화면 재현"><title>헬프데스크 — 대시보드 화면 재현</title><desc>실제 화면을 본뜬 재현 이미지. 표시된 자료는 모두 가상이다.</desc><rect x="0" y="0" width="1200" height="760" fill="#FFFFFF"/><rect x="0" y="0" width="168" height="760" fill="#1C1C1E"/><circle cx="26" cy="30" r="10" fill="#FFFFFF" fill-opacity="0.25"/><rect x="44" y="26" width="62" height="7" fill="#FFFFFF" fill-opacity="0.35"/><rect x="14" y="56" width="140" height="24" fill="#FFFFFF" fill-opacity="0.08"/><rect x="24" y="65" width="52" height="6" fill="#FFFFFF" fill-opacity="0.25"/><rect x="16" y="95" width="9" height="9" fill="#FFFFFF" fill-opacity="0.45"/><text x="36" y="103" fill="#FFFFFF" font-size="12" font-weight="400" text-anchor="start" font-family="sans-serif">시스템</text><rect x="0" y="116" width="168" height="30" fill="#FFFFFF" fill-opacity="0.12"/><rect x="0" y="116" width="3" height="30" fill="#FFFFFF" fill-opacity="0.7"/><rect x="16" y="125" width="9" height="9" fill="#FFFFFF" fill-opacity="0.45"/><text x="36" y="133" fill="#FFFFFF" font-size="12" font-weight="400" text-anchor="start" font-family="sans-serif">모니터링</text><rect x="16" y="155" width="9" height="9" fill="#FFFFFF" fill-opacity="0.45"/><text x="36" y="163" fill="#FFFFFF" font-size="12" font-weight="400" text-anchor="start" font-family="sans-serif">고객관리</text><rect x="16" y="185" width="9" height="9" fill="#FFFFFF" fill-opacity="0.45"/><text x="36" y="193" fill="#FFFFFF" font-size="12" font-weight="400" text-anchor="start" font-family="sans-serif">접수</text><rect x="16" y="215" width="9" height="9" fill="#FFFFFF" fill-opacity="0.45"/><text x="36" y="223" fill="#FFFFFF" font-size="12" font-weight="400" text-anchor="start" font-family="sans-serif">ACT</text><rect x="16" y="245" width="9" height="9" fill="#FFFFFF" fill-opacity="0.45"/><text x="36" y="253" fill="#FFFFFF" font-size="12" font-weight="400" text-anchor="start" font-family="sans-serif">지원</text><rect x="16" y="275" width="9" height="9" fill="#FFFFFF" fill-opacity="0.45"/><text x="36" y="283" fill="#FFFFFF" font-size="12" font-weight="400" text-anchor="start" font-family="sans-serif">설정</text><rect x="168" y="0" width="1032" height="34" fill="#FFFFFF" stroke="#D2D2D7" stroke-width="1"/><text x="188" y="22" fill="#0A0A0A" font-size="13" font-weight="700" text-anchor="start" font-family="sans-serif">대시보드</text><rect x="264" y="12" width="52" height="7" fill="#D2D2D7"/><rect x="336" y="12" width="52" height="7" fill="#D2D2D7"/><circle cx="194" cy="74" r="6" fill="#0A0A0A" fill-opacity="0.9"/><text x="212" y="78" fill="#1C1C1E" font-size="12" font-weight="400" text-anchor="start" font-family="sans-serif">진행</text><text x="418" y="78" fill="#0A0A0A" font-size="13" font-weight="700" text-anchor="end" font-family="sans-serif">000</text><text x="430" y="78" fill="#6E6E73" font-size="9" font-weight="400" text-anchor="start" font-family="sans-serif">(00.0%)</text><circle cx="194" cy="104" r="6" fill="#0A0A0A" fill-opacity="0.35"/><text x="212" y="108" fill="#1C1C1E" font-size="12" font-weight="400" text-anchor="start" font-family="sans-serif">완료</text><text x="418" y="108" fill="#0A0A0A" font-size="13" font-weight="700" text-anchor="end" font-family="sans-serif">000</text><text x="430" y="108" fill="#6E6E73" font-size="9" font-weight="400" text-anchor="start" font-family="sans-serif">(00.0%)</text><circle cx="194" cy="134" r="6" fill="#0A0A0A" fill-opacity="1.0"/><text x="212" y="138" fill="#1C1C1E" font-size="12" font-weight="400" text-anchor="start" font-family="sans-serif">반려</text><text x="418" y="138" fill="#0A0A0A" font-size="13" font-weight="700" text-anchor="end" font-family="sans-serif">000</text><text x="430" y="138" fill="#6E6E73" font-size="9" font-weight="400" text-anchor="start" font-family="sans-serif">(00.0%)</text><circle cx="194" cy="164" r="6" fill="#0A0A0A" fill-opacity="0.6"/><text x="212" y="168" fill="#1C1C1E" font-size="12" font-weight="400" text-anchor="start" font-family="sans-serif">협의</text><text x="418" y="168" fill="#0A0A0A" font-size="13" font-weight="700" text-anchor="end" font-family="sans-serif">000</text><text x="430" y="168" fill="#6E6E73" font-size="9" font-weight="400" text-anchor="start" font-family="sans-serif">(00.0%)</text><circle cx="194" cy="194" r="6" fill="#0A0A0A" fill-opacity="0.75"/><text x="212" y="198" fill="#1C1C1E" font-size="12" font-weight="400" text-anchor="start" font-family="sans-serif">논의</text><text x="418" y="198" fill="#0A0A0A" font-size="13" font-weight="700" text-anchor="end" font-family="sans-serif">000</text><text x="430" y="198" fill="#6E6E73" font-size="9" font-weight="400" text-anchor="start" font-family="sans-serif">(00.0%)</text><circle cx="194" cy="224" r="6" fill="#0A0A0A" fill-opacity="0.5"/><text x="212" y="228" fill="#1C1C1E" font-size="12" font-weight="400" text-anchor="start" font-family="sans-serif">종료</text><text x="418" y="228" fill="#0A0A0A" font-size="13" font-weight="700" text-anchor="end" font-family="sans-serif">000</text><text x="430" y="228" fill="#6E6E73" font-size="9" font-weight="400" text-anchor="start" font-family="sans-serif">(00.0%)</text><text x="558" y="68" fill="#1C1C1E" font-size="12" font-weight="400" text-anchor="middle" font-family="sans-serif">접수율</text><rect x="0" y="0" width="0" height="0" fill="#FFFFFF"/><circle cx="558" cy="152" r="52" fill="none" stroke="#D2D2D7" stroke-width="13"/><circle cx="558" cy="152" r="52" fill="none" stroke="#0A0A0A" stroke-width="13" stroke-dasharray="257.5 326.7" transform="rotate(-90 558 152)"/><text x="558" y="158" fill="#0A0A0A" font-size="19" font-weight="700" text-anchor="middle" font-family="sans-serif">78.8%</text><rect x="534" y="216" width="48" height="6" fill="#D2D2D7"/><text x="808" y="68" fill="#1C1C1E" font-size="12" font-weight="400" text-anchor="middle" font-family="sans-serif">완료율</text><rect x="0" y="0" width="0" height="0" fill="#FFFFFF"/><circle cx="808" cy="152" r="52" fill="none" stroke="#D2D2D7" stroke-width="13"/><circle cx="808" cy="152" r="52" fill="none" stroke="#1C1C1E" stroke-width="13" stroke-dasharray="313.7 326.7" transform="rotate(-90 808 152)"/><text x="808" y="158" fill="#0A0A0A" font-size="19" font-weight="700" text-anchor="middle" font-family="sans-serif">96.0%</text><rect x="784" y="216" width="48" height="6" fill="#D2D2D7"/><rect x="1048" y="62" width="60" height="40" fill="#FFFFFF" stroke="#D2D2D7" stroke-width="1"/><rect x="1056" y="72" width="44" height="4" fill="#D2D2D7"/><rect x="1056" y="82" width="30" height="4" fill="#D2D2D7"/><text x="1122" y="88" fill="#1C1C1E" font-size="11" font-weight="400" text-anchor="start" font-family="sans-serif">라이선스 만료일</text><rect x="192" y="254" width="186" height="136" fill="#FFFFFF" stroke="#D2D2D7" stroke-width="1"/><rect x="206" y="270" width="66" height="7" fill="#1C1C1E" fill-opacity="0.75"/><text x="206" y="300" fill="#6E6E73" font-size="10" font-weight="400" text-anchor="start" font-family="sans-serif">완료율</text><text x="364" y="300" fill="#0A0A0A" font-size="10" font-weight="700" text-anchor="end" font-family="sans-serif">100.0%</text><rect x="206" y="308" width="158" height="8" fill="#D2D2D7"/><rect x="206" y="308" width="158" height="8" fill="#0A0A0A"/><circle cx="211" cy="334" r="4" fill="#D2D2D7"/><rect x="222" y="331" width="26" height="6" fill="#6E6E73" fill-opacity="0.6"/><text x="275" y="338" fill="#1C1C1E" font-size="11" font-weight="700" text-anchor="end" font-family="sans-serif">0</text><circle cx="290" cy="334" r="4" fill="#D2D2D7"/><rect x="301" y="331" width="26" height="6" fill="#6E6E73" fill-opacity="0.6"/><text x="354" y="338" fill="#1C1C1E" font-size="11" font-weight="700" text-anchor="end" font-family="sans-serif">0</text><circle cx="211" cy="356" r="4" fill="#D2D2D7"/><rect x="222" y="353" width="26" height="6" fill="#6E6E73" fill-opacity="0.6"/><text x="275" y="360" fill="#1C1C1E" font-size="11" font-weight="700" text-anchor="end" font-family="sans-serif">0</text><circle cx="290" cy="356" r="4" fill="#D2D2D7"/><rect x="301" y="353" width="26" height="6" fill="#6E6E73" fill-opacity="0.6"/><text x="354" y="360" fill="#1C1C1E" font-size="11" font-weight="700" text-anchor="end" font-family="sans-serif">0</text><rect x="392" y="254" width="186" height="136" fill="#FFFFFF" stroke="#D2D2D7" stroke-width="1"/><rect x="406" y="270" width="66" height="7" fill="#1C1C1E" fill-opacity="0.75"/><text x="406" y="300" fill="#6E6E73" font-size="10" font-weight="400" text-anchor="start" font-family="sans-serif">완료율</text><text x="564" y="300" fill="#0A0A0A" font-size="10" font-weight="700" text-anchor="end" font-family="sans-serif">100.0%</text><rect x="406" y="308" width="158" height="8" fill="#D2D2D7"/><rect x="406" y="308" width="158" height="8" fill="#0A0A0A"/><circle cx="411" cy="334" r="4" fill="#D2D2D7"/><rect x="422" y="331" width="26" height="6" fill="#6E6E73" fill-opacity="0.6"/><text x="475" y="338" fill="#1C1C1E" font-size="11" font-weight="700" text-anchor="end" font-family="sans-serif">0</text><circle cx="490" cy="334" r="4" fill="#D2D2D7"/><rect x="501" y="331" width="26" height="6" fill="#6E6E73" fill-opacity="0.6"/><text x="554" y="338" fill="#1C1C1E" font-size="11" font-weight="700" text-anchor="end" font-family="sans-serif">0</text><circle cx="411" cy="356" r="4" fill="#D2D2D7"/><rect x="422" y="353" width="26" height="6" fill="#6E6E73" fill-opacity="0.6"/><text x="475" y="360" fill="#1C1C1E" font-size="11" font-weight="700" text-anchor="end" font-family="sans-serif">0</text><circle cx="490" cy="356" r="4" fill="#D2D2D7"/><rect x="501" y="353" width="26" height="6" fill="#6E6E73" fill-opacity="0.6"/><text x="554" y="360" fill="#1C1C1E" font-size="11" font-weight="700" text-anchor="end" font-family="sans-serif">0</text><rect x="592" y="254" width="186" height="136" fill="#FFFFFF" stroke="#D2D2D7" stroke-width="1"/><rect x="606" y="270" width="66" height="7" fill="#1C1C1E" fill-opacity="0.75"/><text x="606" y="300" fill="#6E6E73" font-size="10" font-weight="400" text-anchor="start" font-family="sans-serif">완료율</text><text x="764" y="300" fill="#0A0A0A" font-size="10" font-weight="700" text-anchor="end" font-family="sans-serif">100.0%</text><rect x="606" y="308" width="158" height="8" fill="#D2D2D7"/><rect x="606" y="308" width="158" height="8" fill="#0A0A0A"/><circle cx="611" cy="334" r="4" fill="#D2D2D7"/><rect x="622" y="331" width="26" height="6" fill="#6E6E73" fill-opacity="0.6"/><text x="675" y="338" fill="#1C1C1E" font-size="11" font-weight="700" text-anchor="end" font-family="sans-serif">0</text><circle cx="690" cy="334" r="4" fill="#D2D2D7"/><rect x="701" y="331" width="26" height="6" fill="#6E6E73" fill-opacity="0.6"/><text x="754" y="338" fill="#1C1C1E" font-size="11" font-weight="700" text-anchor="end" font-family="sans-serif">0</text><circle cx="611" cy="356" r="4" fill="#D2D2D7"/><rect x="622" y="353" width="26" height="6" fill="#6E6E73" fill-opacity="0.6"/><text x="675" y="360" fill="#1C1C1E" font-size="11" font-weight="700" text-anchor="end" font-family="sans-serif">0</text><circle cx="690" cy="356" r="4" fill="#D2D2D7"/><rect x="701" y="353" width="26" height="6" fill="#6E6E73" fill-opacity="0.6"/><text x="754" y="360" fill="#1C1C1E" font-size="11" font-weight="700" text-anchor="end" font-family="sans-serif">0</text><rect x="792" y="254" width="186" height="136" fill="#FFFFFF" stroke="#D2D2D7" stroke-width="1"/><rect x="806" y="270" width="66" height="7" fill="#1C1C1E" fill-opacity="0.75"/><text x="806" y="300" fill="#6E6E73" font-size="10" font-weight="400" text-anchor="start" font-family="sans-serif">완료율</text><text x="964" y="300" fill="#0A0A0A" font-size="10" font-weight="700" text-anchor="end" font-family="sans-serif">99.2%</text><rect x="806" y="308" width="158" height="8" fill="#D2D2D7"/><rect x="806" y="308" width="156" height="8" fill="#0A0A0A"/><circle cx="811" cy="334" r="4" fill="#D2D2D7"/><rect x="822" y="331" width="26" height="6" fill="#6E6E73" fill-opacity="0.6"/><text x="875" y="338" fill="#1C1C1E" font-size="11" font-weight="700" text-anchor="end" font-family="sans-serif">0</text><circle cx="890" cy="334" r="4" fill="#D2D2D7"/><rect x="901" y="331" width="26" height="6" fill="#6E6E73" fill-opacity="0.6"/><text x="954" y="338" fill="#1C1C1E" font-size="11" font-weight="700" text-anchor="end" font-family="sans-serif">0</text><circle cx="811" cy="356" r="4" fill="#D2D2D7"/><rect x="822" y="353" width="26" height="6" fill="#6E6E73" fill-opacity="0.6"/><text x="875" y="360" fill="#1C1C1E" font-size="11" font-weight="700" text-anchor="end" font-family="sans-serif">0</text><circle cx="890" cy="356" r="4" fill="#D2D2D7"/><rect x="901" y="353" width="26" height="6" fill="#6E6E73" fill-opacity="0.6"/><text x="954" y="360" fill="#1C1C1E" font-size="11" font-weight="700" text-anchor="end" font-family="sans-serif">0</text><rect x="992" y="254" width="186" height="136" fill="#FFFFFF" stroke="#D2D2D7" stroke-width="1"/><rect x="1006" y="270" width="66" height="7" fill="#1C1C1E" fill-opacity="0.75"/><text x="1006" y="300" fill="#6E6E73" font-size="10" font-weight="400" text-anchor="start" font-family="sans-serif">완료율</text><text x="1164" y="300" fill="#0A0A0A" font-size="10" font-weight="700" text-anchor="end" font-family="sans-serif">84.8%</text><rect x="1006" y="308" width="158" height="8" fill="#D2D2D7"/><rect x="1006" y="308" width="133" height="8" fill="#0A0A0A"/><circle cx="1011" cy="334" r="4" fill="#D2D2D7"/><rect x="1022" y="331" width="26" height="6" fill="#6E6E73" fill-opacity="0.6"/><text x="1075" y="338" fill="#1C1C1E" font-size="11" font-weight="700" text-anchor="end" font-family="sans-serif">0</text><circle cx="1090" cy="334" r="4" fill="#D2D2D7"/><rect x="1101" y="331" width="26" height="6" fill="#6E6E73" fill-opacity="0.6"/><text x="1154" y="338" fill="#1C1C1E" font-size="11" font-weight="700" text-anchor="end" font-family="sans-serif">0</text><circle cx="1011" cy="356" r="4" fill="#D2D2D7"/><rect x="1022" y="353" width="26" height="6" fill="#6E6E73" fill-opacity="0.6"/><text x="1075" y="360" fill="#1C1C1E" font-size="11" font-weight="700" text-anchor="end" font-family="sans-serif">0</text><circle cx="1090" cy="356" r="4" fill="#D2D2D7"/><rect x="1101" y="353" width="26" height="6" fill="#6E6E73" fill-opacity="0.6"/><text x="1154" y="360" fill="#1C1C1E" font-size="11" font-weight="700" text-anchor="end" font-family="sans-serif">0</text><rect x="624" y="402" width="16" height="4" fill="#0A0A0A"/><rect x="648" y="402" width="16" height="4" fill="#D2D2D7"/><rect x="672" y="402" width="16" height="4" fill="#D2D2D7"/><rect x="696" y="402" width="16" height="4" fill="#D2D2D7"/><rect x="192" y="430" width="186" height="136" fill="#FFFFFF" stroke="#D2D2D7" stroke-width="1"/><circle cx="220" cy="458" r="16" fill="#D2D2D7"/><rect x="246" y="448" width="48" height="7" fill="#1C1C1E" fill-opacity="0.75"/><rect x="246" y="462" width="30" height="6" fill="#D2D2D7"/><text x="220" y="496" fill="#0A0A0A" font-size="12" font-weight="700" text-anchor="middle" font-family="sans-serif">0</text><rect x="210" y="504" width="20" height="5" fill="#D2D2D7"/><text x="250" y="496" fill="#0A0A0A" font-size="12" font-weight="700" text-anchor="middle" font-family="sans-serif">0</text><rect x="240" y="504" width="20" height="5" fill="#D2D2D7"/><text x="280" y="496" fill="#0A0A0A" font-size="12" font-weight="700" text-anchor="middle" font-family="sans-serif">0</text><rect x="270" y="504" width="20" height="5" fill="#D2D2D7"/><text x="310" y="496" fill="#0A0A0A" font-size="12" font-weight="700" text-anchor="middle" font-family="sans-serif">0</text><rect x="300" y="504" width="20" height="5" fill="#D2D2D7"/><text x="340" y="496" fill="#0A0A0A" font-size="12" font-weight="700" text-anchor="middle" font-family="sans-serif">0</text><rect x="330" y="504" width="20" height="5" fill="#D2D2D7"/><text x="208" y="526" fill="#6E6E73" font-size="9" font-weight="400" text-anchor="start" font-family="sans-serif">접수율</text><text x="362" y="526" fill="#1C1C1E" font-size="9" font-weight="700" text-anchor="end" font-family="sans-serif">78.8%</text><rect x="208" y="531" width="154" height="6" fill="#D2D2D7"/><rect x="208" y="531" width="121" height="6" fill="#0A0A0A"/><text x="208" y="546" fill="#6E6E73" font-size="9" font-weight="400" text-anchor="start" font-family="sans-serif">완료율</text><text x="362" y="546" fill="#1C1C1E" font-size="9" font-weight="700" text-anchor="end" font-family="sans-serif">96.0%</text><rect x="208" y="551" width="154" height="6" fill="#D2D2D7"/><rect x="208" y="551" width="147" height="6" fill="#0A0A0A"/><rect x="392" y="430" width="186" height="136" fill="#FFFFFF" stroke="#D2D2D7" stroke-width="1"/><circle cx="420" cy="458" r="16" fill="#D2D2D7"/><rect x="446" y="448" width="48" height="7" fill="#1C1C1E" fill-opacity="0.75"/><rect x="446" y="462" width="30" height="6" fill="#D2D2D7"/><text x="420" y="496" fill="#0A0A0A" font-size="12" font-weight="700" text-anchor="middle" font-family="sans-serif">0</text><rect x="410" y="504" width="20" height="5" fill="#D2D2D7"/><text x="450" y="496" fill="#0A0A0A" font-size="12" font-weight="700" text-anchor="middle" font-family="sans-serif">0</text><rect x="440" y="504" width="20" height="5" fill="#D2D2D7"/><text x="480" y="496" fill="#0A0A0A" font-size="12" font-weight="700" text-anchor="middle" font-family="sans-serif">0</text><rect x="470" y="504" width="20" height="5" fill="#D2D2D7"/><text x="510" y="496" fill="#0A0A0A" font-size="12" font-weight="700" text-anchor="middle" font-family="sans-serif">0</text><rect x="500" y="504" width="20" height="5" fill="#D2D2D7"/><text x="540" y="496" fill="#0A0A0A" font-size="12" font-weight="700" text-anchor="middle" font-family="sans-serif">0</text><rect x="530" y="504" width="20" height="5" fill="#D2D2D7"/><text x="408" y="526" fill="#6E6E73" font-size="9" font-weight="400" text-anchor="start" font-family="sans-serif">접수율</text><text x="562" y="526" fill="#1C1C1E" font-size="9" font-weight="700" text-anchor="end" font-family="sans-serif">16.9%</text><rect x="408" y="531" width="154" height="6" fill="#D2D2D7"/><rect x="408" y="531" width="26" height="6" fill="#0A0A0A"/><text x="408" y="546" fill="#6E6E73" font-size="9" font-weight="400" text-anchor="start" font-family="sans-serif">완료율</text><text x="562" y="546" fill="#1C1C1E" font-size="9" font-weight="700" text-anchor="end" font-family="sans-serif">96.6%</text><rect x="408" y="551" width="154" height="6" fill="#D2D2D7"/><rect x="408" y="551" width="148" height="6" fill="#0A0A0A"/><rect x="592" y="430" width="186" height="136" fill="#FFFFFF" stroke="#D2D2D7" stroke-width="1"/><circle cx="620" cy="458" r="16" fill="#D2D2D7"/><rect x="646" y="448" width="48" height="7" fill="#1C1C1E" fill-opacity="0.75"/><rect x="646" y="462" width="30" height="6" fill="#D2D2D7"/><text x="620" y="496" fill="#0A0A0A" font-size="12" font-weight="700" text-anchor="middle" font-family="sans-serif">0</text><rect x="610" y="504" width="20" height="5" fill="#D2D2D7"/><text x="650" y="496" fill="#0A0A0A" font-size="12" font-weight="700" text-anchor="middle" font-family="sans-serif">0</text><rect x="640" y="504" width="20" height="5" fill="#D2D2D7"/><text x="680" y="496" fill="#0A0A0A" font-size="12" font-weight="700" text-anchor="middle" font-family="sans-serif">0</text><rect x="670" y="504" width="20" height="5" fill="#D2D2D7"/><text x="710" y="496" fill="#0A0A0A" font-size="12" font-weight="700" text-anchor="middle" font-family="sans-serif">0</text><rect x="700" y="504" width="20" height="5" fill="#D2D2D7"/><text x="740" y="496" fill="#0A0A0A" font-size="12" font-weight="700" text-anchor="middle" font-family="sans-serif">0</text><rect x="730" y="504" width="20" height="5" fill="#D2D2D7"/><text x="608" y="526" fill="#6E6E73" font-size="9" font-weight="400" text-anchor="start" font-family="sans-serif">접수율</text><text x="762" y="526" fill="#1C1C1E" font-size="9" font-weight="700" text-anchor="end" font-family="sans-serif">3.9%</text><rect x="608" y="531" width="154" height="6" fill="#D2D2D7"/><rect x="608" y="531" width="6" height="6" fill="#0A0A0A"/><text x="608" y="546" fill="#6E6E73" font-size="9" font-weight="400" text-anchor="start" font-family="sans-serif">완료율</text><text x="762" y="546" fill="#1C1C1E" font-size="9" font-weight="700" text-anchor="end" font-family="sans-serif">92.6%</text><rect x="608" y="551" width="154" height="6" fill="#D2D2D7"/><rect x="608" y="551" width="142" height="6" fill="#0A0A0A"/><rect x="792" y="430" width="186" height="136" fill="#FFFFFF" stroke="#D2D2D7" stroke-width="1"/><circle cx="820" cy="458" r="16" fill="#D2D2D7"/><rect x="846" y="448" width="48" height="7" fill="#1C1C1E" fill-opacity="0.75"/><rect x="846" y="462" width="30" height="6" fill="#D2D2D7"/><text x="820" y="496" fill="#0A0A0A" font-size="12" font-weight="700" text-anchor="middle" font-family="sans-serif">0</text><rect x="810" y="504" width="20" height="5" fill="#D2D2D7"/><text x="850" y="496" fill="#0A0A0A" font-size="12" font-weight="700" text-anchor="middle" font-family="sans-serif">0</text><rect x="840" y="504" width="20" height="5" fill="#D2D2D7"/><text x="880" y="496" fill="#0A0A0A" font-size="12" font-weight="700" text-anchor="middle" font-family="sans-serif">0</text><rect x="870" y="504" width="20" height="5" fill="#D2D2D7"/><text x="910" y="496" fill="#0A0A0A" font-size="12" font-weight="700" text-anchor="middle" font-family="sans-serif">0</text><rect x="900" y="504" width="20" height="5" fill="#D2D2D7"/><text x="940" y="496" fill="#0A0A0A" font-size="12" font-weight="700" text-anchor="middle" font-family="sans-serif">0</text><rect x="930" y="504" width="20" height="5" fill="#D2D2D7"/><text x="808" y="526" fill="#6E6E73" font-size="9" font-weight="400" text-anchor="start" font-family="sans-serif">접수율</text><text x="962" y="526" fill="#1C1C1E" font-size="9" font-weight="700" text-anchor="end" font-family="sans-serif">0.3%</text><rect x="808" y="531" width="154" height="6" fill="#D2D2D7"/><rect x="808" y="531" width="0" height="6" fill="#0A0A0A"/><text x="808" y="546" fill="#6E6E73" font-size="9" font-weight="400" text-anchor="start" font-family="sans-serif">완료율</text><text x="962" y="546" fill="#1C1C1E" font-size="9" font-weight="700" text-anchor="end" font-family="sans-serif">100.0%</text><rect x="808" y="551" width="154" height="6" fill="#D2D2D7"/><rect x="808" y="551" width="154" height="6" fill="#0A0A0A"/><rect x="992" y="430" width="186" height="136" fill="#FFFFFF" stroke="#D2D2D7" stroke-width="1"/><circle cx="1020" cy="458" r="16" fill="#D2D2D7"/><rect x="1046" y="448" width="48" height="7" fill="#1C1C1E" fill-opacity="0.75"/><rect x="1046" y="462" width="30" height="6" fill="#D2D2D7"/><text x="1020" y="496" fill="#0A0A0A" font-size="12" font-weight="700" text-anchor="middle" font-family="sans-serif">0</text><rect x="1010" y="504" width="20" height="5" fill="#D2D2D7"/><text x="1050" y="496" fill="#0A0A0A" font-size="12" font-weight="700" text-anchor="middle" font-family="sans-serif">0</text><rect x="1040" y="504" width="20" height="5" fill="#D2D2D7"/><text x="1080" y="496" fill="#0A0A0A" font-size="12" font-weight="700" text-anchor="middle" font-family="sans-serif">0</text><rect x="1070" y="504" width="20" height="5" fill="#D2D2D7"/><text x="1110" y="496" fill="#0A0A0A" font-size="12" font-weight="700" text-anchor="middle" font-family="sans-serif">0</text><rect x="1100" y="504" width="20" height="5" fill="#D2D2D7"/><text x="1140" y="496" fill="#0A0A0A" font-size="12" font-weight="700" text-anchor="middle" font-family="sans-serif">0</text><rect x="1130" y="504" width="20" height="5" fill="#D2D2D7"/><text x="1008" y="526" fill="#6E6E73" font-size="9" font-weight="400" text-anchor="start" font-family="sans-serif">접수율</text><text x="1162" y="526" fill="#1C1C1E" font-size="9" font-weight="700" text-anchor="end" font-family="sans-serif">0.0%</text><rect x="1008" y="531" width="154" height="6" fill="#D2D2D7"/><rect x="1008" y="531" width="0" height="6" fill="#0A0A0A"/><text x="1008" y="546" fill="#6E6E73" font-size="9" font-weight="400" text-anchor="start" font-family="sans-serif">완료율</text><text x="1162" y="546" fill="#1C1C1E" font-size="9" font-weight="700" text-anchor="end" font-family="sans-serif">0.0%</text><rect x="1008" y="551" width="154" height="6" fill="#D2D2D7"/><rect x="1008" y="551" width="0" height="6" fill="#0A0A0A"/><rect x="658" y="580" width="24" height="5" fill="#0A0A0A"/></svg>